<svg width="305" height="305" viewBox="0 0 305 305" fill="none" xmlns="http://www.w3.org/2000/svg">
<rect x="1.5" y="1.5" width="302" height="302" rx="1.5" fill="#D9D9D9" stroke="white" stroke-width="3"/>
<path d="M1 303V250L57.5 304H2C1.44772 304 1 303.552 1 303Z" fill="white" stroke="white"/>
<path d="M303.504 3.00042L303.715 56L247 2.22561L302.5 2.00441C303.052 2.00221 303.501 2.44814 303.504 3.00042Z" fill="white" stroke="white"/>
<path d="M89.2734 96.8984C98.5755 97.2943 110.277 97.4922 124.379 97.4922L153.102 175.273H153.473L183.383 97.4922H191.918C198.053 97.4922 206.712 97.2943 217.895 96.8984C218.092 97.6901 218.191 98.2344 218.191 98.5312C218.191 98.8776 218.092 99.4961 217.895 100.387C216.113 100.535 214.678 100.684 213.59 100.832C212.501 100.98 211.042 101.228 209.211 101.574C207.43 101.921 205.995 102.341 204.906 102.836C203.818 103.281 202.853 103.924 202.012 104.766C201.171 105.557 200.725 106.473 200.676 107.512C200.181 119.139 199.934 132.969 199.934 149C199.934 165.279 200.255 180.889 200.898 195.832C200.948 197.118 201.517 198.232 202.605 199.172C203.694 200.062 205.253 200.755 207.281 201.25C209.359 201.745 211.091 202.116 212.477 202.363C213.911 202.561 215.767 202.759 218.043 202.957C218.241 203.749 218.34 204.417 218.34 204.961C218.34 205.357 218.241 205.852 218.043 206.445C209.681 206.148 201.072 206 192.215 206C183.309 206 174.699 206.148 166.387 206.445C166.189 205.852 166.09 205.357 166.09 204.961C166.09 204.12 166.189 203.452 166.387 202.957C168.663 202.759 170.493 202.561 171.879 202.363C173.314 202.116 175.046 201.745 177.074 201.25C179.152 200.755 180.736 200.062 181.824 199.172C182.913 198.232 183.482 197.118 183.531 195.832C184.026 180.395 184.273 166.615 184.273 154.492C184.273 142.865 184.026 129.629 183.531 114.785H182.938L149.02 204.145H148.277L112.133 113.004H111.316C110.921 125.027 110.723 138.857 110.723 154.492C110.723 165.971 110.97 179.38 111.465 194.719C111.564 199.221 117.031 201.967 127.867 202.957C128.115 203.798 128.238 204.466 128.238 204.961C128.238 205.456 128.115 205.951 127.867 206.445C120 206.148 112.974 206 106.789 206C102.831 206 96.2005 206.148 86.8984 206.445C86.651 205.951 86.5273 205.456 86.5273 204.961C86.5273 204.12 86.651 203.452 86.8984 202.957C97.8333 201.918 103.301 199.172 103.301 194.719C103.895 179.281 104.191 164.042 104.191 149C104.191 138.164 104.043 126.66 103.746 114.488C103.697 112.41 103.573 110.678 103.375 109.293C103.177 107.858 102.806 106.621 102.262 105.582C101.717 104.543 101.148 103.727 100.555 103.133C99.9609 102.539 99.0456 102.02 97.8086 101.574C96.5716 101.079 95.3594 100.733 94.1719 100.535C93.0339 100.288 91.401 100.016 89.2734 99.7188C89.0755 99.3229 88.9766 98.8776 88.9766 98.3828C88.9766 97.7891 89.0755 97.2943 89.2734 96.8984Z" fill="url(#paint0_linear_738_44)"/>
<defs>
<linearGradient id="paint0_linear_738_44" x1="82" y1="93" x2="244.5" y2="300" gradientUnits="userSpaceOnUse">
<stop stop-color="#6A4BD2"/>
<stop offset="1" stop-color="#37276C"/>
</linearGradient>
</defs>
</svg>
