<svg width="41" height="18" viewBox="0 0 41 18" fill="none" xmlns="http://www.w3.org/2000/svg">
<path d="M-0.00169813 18V17.7549L1.83687 17.4362V1.23223L0.096359 0.889028V0.643885H4.48442L11.2994 15.5486L10.9807 15.1809H11.6916L11.422 15.5241L16.7906 0.643885H21.1541V0.889028L19.6342 1.20771V17.4362L21.1541 17.7549V18H15.1972V17.7549L16.8151 17.4362V3.2424H16.4474L11.1278 18H9.31373L2.59682 3.51206H2.20459V10.327C2.20459 10.9317 2.24544 11.5609 2.32716 12.2146C2.40887 12.852 2.53962 13.4812 2.71939 14.1022C2.89916 14.7069 3.13613 15.2707 3.4303 15.7937C3.74082 16.3003 4.12487 16.7253 4.58247 17.0685C5.04007 17.4117 5.57939 17.6405 6.20042 17.7549V18H-0.00169813ZM22.2188 18V17.7549L23.7387 17.4362L30.3085 0.643885H32.1716L38.6434 17.4362L40.1387 17.7549V18H33.8876V17.8039L35.6281 17.4607L30.0634 2.92371H29.7937L26.7539 11.0134C26.4598 11.7489 26.231 12.4516 26.0675 13.1217C25.9204 13.7917 25.8469 14.3801 25.8469 14.8867C25.8469 15.4423 25.945 15.9408 26.1411 16.3821C26.3535 16.8233 26.6886 17.1665 27.1462 17.4117C27.6038 17.6405 28.2003 17.7549 28.9357 17.7549V18H22.2188ZM26.4352 10.9399V10.6947L33.2747 10.4251V10.9399H26.4352Z" fill="white"/>
</svg>
